<?xml version="1.0" standalone="no"?>
<!DOCTYPE svg PUBLIC "-//W3C//DTD SVG 1.1//EN" "http://www.w3.org/Graphics/SVG/1.1/DTD/svg11.dtd" >
<!--
2013-9-30: Created.
-->
<svg>
<metadata>
Created by iconfont
</metadata>
<defs>

<font id="iconfont" horiz-adv-x="1024" >
  <font-face
    font-family="iconfont"
    font-weight="500"
    font-stretch="normal"
    units-per-em="1024"
    ascent="896"
    descent="-128"
  />
    <missing-glyph />
    
    <glyph glyph-name="x" unicode="x" horiz-adv-x="1001"
d="M281 543q-27 -1 -53 -1h-83q-18 0 -36.5 -6t-32.5 -18.5t-23 -32t-9 -45.5v-76h912v41q0 16 -0.5 30t-0.5 18q0 13 -5 29t-17 29.5t-31.5 22.5t-49.5 9h-133v-97h-438v97zM955 310v-52q0 -23 0.5 -52t0.5 -58t-10.5 -47.5t-26 -30t-33 -16t-31.5 -4.5q-14 -1 -29.5 -0.5
t-29.5 0.5h-32l-45 128h-439l-44 -128h-29h-34q-20 0 -45 1q-25 0 -41 9.5t-25.5 23t-13.5 29.5t-4 30v167h911zM163 247q-12 0 -21 -8.5t-9 -21.5t9 -21.5t21 -8.5q13 0 22 8.5t9 21.5t-9 21.5t-22 8.5zM316 123q-8 -26 -14 -48q-5 -19 -10.5 -37t-7.5 -25t-3 -15t1 -14.5
t9.5 -10.5t21.5 -4h37h67h81h80h64h36q23 0 34 12t2 38q-5 13 -9.5 30.5t-9.5 34.5q-5 19 -11 39h-368zM336 498v228q0 11 2.5 23t10 21.5t20.5 15.5t34 6h188q31 0 51.5 -14.5t20.5 -52.5v-227h-327z" />
    

    
    <glyph glyph-name="arrowdown" unicode="&#58914;" d="M750.32576 502.79936l-238.57152-238.08512-238.08512 238.57152 476.65664-0.4864z"  horiz-adv-x="1024" />

    
    <glyph glyph-name="arrowleft" unicode="&#58915;" d="M630.79936 145.664L392.71424 384.24576l238.57152 238.09024-0.4864-476.66176z"  horiz-adv-x="1024" />

    
    <glyph glyph-name="arrowup" unicode="&#58916;" d="M273.664 265.19552l238.57152 238.09024 238.09024-238.57152-476.66176 0.48128z"  horiz-adv-x="1024" />

    
    <glyph glyph-name="eyeopen" unicode="&#58917;" d="M513.42336 684.3648c-208 0-388.28544-121.14944-476.86144-298.02496 88.58112-176.91136 268.86144-298.03008 476.86144-298.03008 208.00512 0 388.25472 121.11872 476.86656 298.03008-88.58112 176.87552-268.86144 298.02496-476.86656 298.02496zM424.0128 570.73152c49.38752 0 89.41056-40.05888 89.41056-89.41056 0-49.3824-40.02304-89.40544-89.41056-89.40544s-89.41056 40.02304-89.41056 89.40544c0 49.35168 40.02304 89.41056 89.41056 89.41056z m324.53632-324.4032a436.34688 436.34688 0 0 0-235.12576-68.608 436.3264 436.3264 0 0 0-235.12064 68.608c-56.02816 35.75808-103.50592 83.65056-139.18208 140.01152 35.67616 56.32512 83.15392 104.24832 139.18208 139.9808 3.6352 2.32448 7.33184 4.56192 11.0592 6.76352a237.02016 237.02016 0 0 1-14.36672-81.57184c0-131.69664 106.75712-238.41792 238.42816-238.41792 131.67616 0 238.43328 106.72128 238.43328 238.41792 0 28.672-5.0688 56.1152-14.34112 81.54112 3.70176-2.176 7.38816-4.40832 11.02848-6.7328 56.02816-35.73248 103.51104-83.62496 139.18208-139.9808-35.66592-56.36096-83.14368-104.24832-139.17696-140.01152z"  horiz-adv-x="1024" />

    
    <glyph glyph-name="busy" unicode="&#58918;" d="M728.99072 384C866.74944 471.32672 960 639.20128 960 832c0 21.66272-1.18272 43.03872-3.48672 64H67.456c-2.304-20.96128-3.48672-42.33728-3.48672-64 0-192.79872 93.24544-360.67328 231.00416-448-137.75872-87.32672-231.00416-255.20128-231.00416-448 0-21.66272 1.18272-43.03872 3.48672-64h889.05728c2.304 20.96128 3.48672 42.33728 3.48672 64 0 192.79872-93.25056 360.67328-231.00928 448zM160-64c0 186.91072 80.15872 345.41056 224 397.696V434.27328C240.15872 486.5536 160 645.05856 160 831.96928h704c0-186.91072-80.15872-345.41056-224-397.696v-100.57728c143.84128-52.28544 224-210.78528 224-397.696H160z m459.61728 290.40128c-71.64928 40.63744-75.61728 93.37344-75.61728 125.37344V416c0 32 3.80928 84.92544 75.74528 125.66528C658.24256 564.03456 691.55328 598.016 716.8 640H307.23072c25.28256-42.01472 58.624-76.032 97.152-98.40128C476.032 500.96128 480 448.22528 480 416.22528v-64.22528c0-32-3.80928-84.92544-75.74528-125.66528C331.648 184.1664 277.504 100.63872 261.15072 0h501.66784c-16.35328 100.70528-70.528 184.25344-143.2064 226.40128z"  horiz-adv-x="1024" />

    
    <glyph glyph-name="arrowright" unicode="&#58919;" d="M393.19552 622.33088l238.08512-238.57152-238.5664-238.09024 0.48128 476.66176z"  horiz-adv-x="1024" />

    
    <glyph glyph-name="eyeclose" unicode="&#58920;" d="M982.3488 370.26816L890.46016 446.0544c20.82304 24.97024 37.91872 51.14368 51.08224 77.45024a35.61984 35.61984 0 0 1-15.90272 47.74912 35.6096 35.6096 0 0 1-47.75424-15.9232c-28.16-56.36096-79.07328-112.4352-149.5296-152.69376-46.20288-26.4192-100.64896-45.8496-162.4576-54.00576l-1.024-0.14848c-18.9696-2.45248-38.61504-3.85024-58.94656-4.05504a461.09184 461.09184 0 0 0-82.432 6.47168 50.2016 50.2016 0 0 1-2.70336 0.47104c-44.2368 7.85408-84.34688 21.99552-119.97696 40.4224a35.31776 35.31776 0 0 1-17.39264 9.54368 402.4064 402.4064 0 0 0-83.47136 64.2304 37.46816 37.46816 0 0 1-1.9456 1.96608c-27.20256 27.76576-48.52736 57.87648-63.46752 87.79264a35.6096 35.6096 0 0 1-47.74912 15.9232 35.59936 35.59936 0 0 1-15.9232-47.74912c12.30336-24.59136 28.07296-49.25952 47.11936-72.98048l-69.4784-40.21248a35.6352 35.6352 0 0 1-12.97408-48.70656 35.62496 35.62496 0 0 1 48.70144-12.97408l84.10112 48.66048a474.55232 474.55232 0 0 1 52.7104-41.1136l-58.30656-71.2192a35.70176 35.70176 0 0 1 5.03296-50.24768 35.7376 35.7376 0 0 1 50.24768 5.0176l66.06848 80.72192a488.66304 488.66304 0 0 1 85.2992-30.79168l-23.47008-68.77696a35.6864 35.6864 0 0 1 22.32832-45.24032 35.69664 35.69664 0 0 1 45.2352 22.34368l26.8288 78.61248c21.3248-2.42176 43.38688-3.57376 66.18112-3.34848 9.89696 0.11776 19.6608 0.4352 29.2864 1.024l2.3552-71.8336a35.61472 35.61472 0 0 1 36.71552-34.47296 35.6096 35.6096 0 0 1 34.4576 36.7104l-2.54976 78.42816a520.11008 520.11008 0 0 1 85.62176 24.02816l48.38912-94.04416c8.99072-17.47968 30.5152-24.3456 48.0256-15.3344a35.6352 35.6352 0 0 1 15.3344 48.0256l-46.90944 91.18208a476.53376 476.53376 0 0 1 83.18464 58.08128l96.71168-79.76448a35.60448 35.60448 0 0 1 50.10944 4.88448c12.50304 15.17568 10.30144 37.62176-4.87424 50.10944z"  horiz-adv-x="1024" />

    
    <glyph glyph-name="caidan" unicode="&#58921;" d="M960 640c0-35.328-28.672-64-64-64H128c-35.328 0-64 28.672-64 64S92.672 704 128 704h768c35.328 0 64-28.672 64-64z m-256-256c0-35.328-28.672-64-64-64H128c-35.328 0-64 28.672-64 64S92.672 448 128 448h512c35.328 0 64-28.672 64-64zM512 128c0-35.328-28.672-64-64-64H128c-35.328 0-64 28.672-64 64s28.672 64 64 64h320c35.328 0 64-28.672 64-64z"  horiz-adv-x="1024" />

    
    <glyph glyph-name="cha" unicode="&#58922;" d="M886.528-12.032c-28.09344-28.09344-73.856-28.09344-102.016 0L138.30144 634.17856c-28.09344 28.16-28.16 73.856 0 102.016 28.032 28.16 73.79456 28.16 102.08256 0l646.144-646.144c28.09344-28.288 28.22144-73.92256 0-102.08256zM885.76 634.496l-646.144-646.144c-28.22656-28.22144-73.92256-28.22144-102.08256 0-28.16 28.09856-28.16 73.728 0.06656 102.016l646.144 646.08256c28.22656 28.16 73.984 28.16 102.016 0.06144 28.22656-28.16 28.09856-73.856 0-102.016z"  horiz-adv-x="1024" />

    
    <glyph glyph-name="bangzhu" unicode="&#58923;" d="M512-19.85536c-223.04256 0-403.85536 180.8128-403.85536 403.85536S288.95744 787.85536 512 787.85536 915.85536 607.04256 915.85536 384 735.04256-19.85536 512-19.85536z m-46.45376 127.3088c10.74688-11.28448 24.45824-16.93184 41.12384-16.93184 16.128 0 30.36672 5.36576 42.74176 16.128 11.2896 11.2896 16.93184 25.26208 16.93184 41.9328 0 17.2032-5.64224 30.90432-16.93184 41.12384-10.76224 10.752-24.99584 16.128-42.74176 16.128-17.20832 0-30.91968-5.376-41.12384-16.128-11.8272-10.21952-17.7408-23.92576-17.7408-41.12384 0-16.128 5.90848-29.83424 17.7408-41.12896z m181.43744 527.39072c-31.72352 28.48768-73.92256 42.73664-126.60224 42.73664-59.14624 0-105.64096-17.21344-139.50976-51.6096-34.4064-33.8688-51.6096-80.11264-51.6096-138.7008h85.4784c0 36.00896 7.26016 63.70304 21.77536 83.05664 16.128 22.5792 42.46016 33.8688 79.0272 33.8688 29.0304 0 51.6096-8.05888 67.7376-24.192 15.58528-16.6656 23.38304-38.7072 23.38304-66.1248 0-20.43392-7.25504-40.05376-21.77024-58.86464l-13.71136-15.32416c-49.9968-44.62592-80.64-77.95712-91.9296-99.9936-10.21952-20.43392-15.31904-45.96224-15.31904-76.60544v-13.71136h86.28224v13.71136c0 20.42368 4.3008 38.43072 12.9024 54.02624 6.98368 13.9776 18.00704 27.68384 33.06496 41.12896 37.62176 32.256 60.47744 53.2224 68.54144 62.8992 19.88608 26.33216 29.83936 59.136 29.83936 98.3808 0 48.384-15.86176 86.81472-47.58016 115.31776z"  horiz-adv-x="1024" />

    
    <glyph glyph-name="Qbi" unicode="&#58924;" d="M969.69216 212.992c-5.376 30.6432-14.1056 58.60352-26.17856 83.85536-12.07808 25.22624-24.3968 46.86848-36.91008 64.91648-12.544 18.03776-28.18048 36.96128-46.98624 56.8064 2.68288 28.84096 2.4576 51.83488-0.6656 68.97664-3.1488 17.10592-6.9376 30.64832-11.40736 40.576-5.36576 9.00096-12.98432 17.10592-22.81984 24.34048-1.80224 87.4496-19.01568 154.62912-51.6608 201.51296-32.68608 46.8736-67.7888 80.6912-105.3696 101.44768C629.21216 877.056 594.0736 889.2416 562.31936 891.93984 530.54464 894.6432 513.77152 896 511.98464 896c-1.792 0-18.57536-1.3568-50.31936-4.06016-31.7696-2.70336-66.90816-14.88896-105.35936-36.51584-37.5808-20.75648-72.71424-54.5792-105.3696-101.44768-32.67584-46.88384-49.88928-114.06336-51.67616-201.51296-9.85088-6.3232-17.43872-14.4384-22.81984-24.34048-4.48512-9.9328-8.28928-23.47008-11.40736-40.576-3.15392-17.14176-3.36384-40.13568-0.6656-68.97664-18.7904-19.84512-34.4576-38.77888-46.97088-56.8064-12.544-17.13664-24.832-38.5536-36.92544-64.24064-12.07296-25.7024-20.80256-53.888-26.1632-84.5312 0-40.576 3.1232-68.096 9.39008-82.5088 5.36576-15.3344 14.97088-21.43232 28.86656-18.25792 13.8496 3.15392 35.10272 28.17024 63.744 75.06944 6.25664-16.2304 12.52864-30.6688 18.80064-43.27936 6.2464-12.6464 13.86496-27.05408 22.81472-43.2896a387.38944 387.38944 0 0 1 30.86848-47.3344c-17.90976-7.2192-31.77472-15.3344-41.61024-24.3456-9.86112-8.1152-18.57536-18.71872-26.1632-31.77984-7.62368-13.0816-10.53184-28.62592-8.7296-46.66368 2.68288-17.13664 9.8304-31.104 21.46816-41.92768 10.74688-9.9328 28.20096-18.7136 52.352-26.368 24.15104-7.67488 58.58816-11.05408 103.3472-10.15296 27.74016 3.59936 50.54464 7.6544 68.4544 12.1856a291.93216 291.93216 0 0 1 55.69536 19.6096c18.3296 8.56064 31.98464 19.6096 40.93952 33.1264h34.90816c8.92416-13.5168 22.5792-24.56576 40.93952-33.1264a291.19488 291.19488 0 0 1 55.69536-19.6096c17.8944-4.5312 40.69888-8.58624 68.43904-12.1856 44.74368-0.90112 79.19616 2.47808 103.36256 10.15296 24.15104 7.6544 41.60512 16.4352 52.34688 26.368 11.6224 10.82368 18.7904 24.79104 21.47328 41.92768 1.78688 18.03776-1.13664 33.58208-8.7296 46.66368-7.6032 13.06112-16.3328 23.66464-26.1632 31.77984-9.86624 9.0112-23.71584 17.12128-41.61024 24.3456a392.76544 392.76544 0 0 1 30.86336 47.3344c8.93952 16.23552 16.54784 30.64832 22.81984 43.2896 6.25664 12.61056 12.52864 27.04384 18.80064 43.27936 28.6208-46.8992 49.8688-71.91552 63.75936-75.06944 13.8496-3.1744 23.47008 2.9184 28.8512 18.25792 6.24128 14.41792 9.39008 41.9328 9.39008 82.5088z m-257.11616-23.38304c-4.84864-5.30944-10.73152-7.9616-17.664-7.9616-5.59616 0-12.38528 1.83808-20.36736 5.47328-8.00256 3.6608-17.37728 8.97536-28.14976 15.93344-10.8032 6.9632-22.60992 15.104-35.456 24.40192-23.87968-12.28288-53.1968-18.42688-87.95648-18.42688-28.14976 0-53.39136 4.52096-75.69408 13.57824-22.31808 9.02656-41.04704 22.05696-56.19712 39.0656-15.1552 17.01376-26.5472 37.20192-34.2272 60.60544-7.64928 23.40864-11.4688 48.88576-11.4688 76.416 0 28.03712 3.98336 53.78048 11.97056 77.1584 7.9872 23.3984 19.5584 43.3152 34.7136 59.75552 15.14496 16.41984 33.60256 28.98432 55.33184 37.69344 21.73952 8.73472 46.42304 13.06624 74.10176 13.06624 37.54496 0 69.77536-7.67488 96.7168-23.00928 26.9056-15.34464 47.29856-37.1712 61.1328-65.4592 13.82912-28.29824 20.736-61.53216 20.736-99.70176 0-57.9072-15.56992-103.7824-46.6944-137.63584a415.61088 415.61088 0 0 1 35.09248-21.2992c12.68224-6.87616 21.07392-12.35456 25.18016-16.41472 4.13696-4.06016 6.18496-9.8304 6.18496-17.29536 0.01536-5.31968-2.44224-10.61376-7.28576-15.94368z m-99.66592 278.528c8.56064-19.56352 12.8512-42.7264 12.8512-69.4272 0-21.248-2.44224-39.9104-7.29088-56.0128-4.864-16.09216-12.39552-30.03392-22.6048-41.81504-35.26144 25.216-60.34944 37.82144-75.33568 37.82144-4.95104 0-9.472-1.90464-13.58848-5.7344-4.1216-3.80416-6.1696-8.18176-6.1696-13.184 0-5.80096 2.14016-10.2912 6.4256-13.42976 4.2752-3.15392 12.22656-7.63904 23.8336-13.45024 11.59168-5.80096 21.2736-11.60704 29.01504-17.41312-12.8512-5.15584-25.344-7.7056-37.54496-7.7056-29.64992 0-54.17984 11.31008-73.6256 33.95584-19.42016 22.656-29.14816 54.95808-29.14816 96.96768 0 20.57728 2.6112 39.11168 7.80288 55.6288 5.1712 16.49664 12.27264 30.0544 21.22752 40.69376 8.9856 10.624 19.68128 18.69824 32.13824 24.25344 12.42112 5.56032 25.95328 8.3456 40.62208 8.3456 20.58752 0 38.81472-5.0176 54.71232-15.05792 15.89248-10.02496 28.11904-24.85248 36.67968-44.43136z m0 0"  horiz-adv-x="1024" />

    
    <glyph glyph-name="cuowu" unicode="&#58925;" d="M512 896C230.4 896 0 665.6 0 384s230.4-512 512-512 512 230.4 512 512S793.6 896 512 896z m238.08-665.6L665.6 145.92l-153.6 153.6-153.6-153.6L273.92 230.4l153.6 153.6-153.6 153.6L358.4 622.08l153.6-153.6 153.6 153.6L750.08 537.6l-153.6-153.6 153.6-153.6z"  horiz-adv-x="1024" />

    
    <glyph glyph-name="chazhao" unicode="&#58926;" d="M229.8368 718.80704h461.98272v-57.74848H229.8368v57.7536z m-1.536-116.06016h461.9776v-57.7536H228.3008v57.7536z m-113.96096 232.4992H807.3216v-461.98272h57.7536v461.9776c0 31.8976-25.856 57.7536-57.7536 57.7536H114.33984c-31.89248 0-57.74848-25.856-57.74848-57.7536V26.7776c0-31.89248 25.856-57.74848 57.7536-57.74848h404.23424v57.7536H114.33984V835.24096z m115.11296-463.488v-57.74848h140.45184c0 20.0704 2.93888 39.4496 8.38656 57.7536h-148.8384zM465.5616 487.25504H228.3008v-57.74848h175.5392A203.17696 203.17696 0 0 0 465.5616 487.25504z m437.248-464.77824l-132.41856 130.84672a201.3184 201.3184 0 0 1 48.84992 131.75296c0 111.62624-90.49088 202.11712-202.11712 202.11712S415.00672 396.70272 415.00672 285.0816s90.49088-202.11712 202.11712-202.11712a201.15456 201.15456 0 0 1 109.63456 32.29696l135.2192-133.61152a28.8768 28.8768 0 1 1 40.832 40.832zM472.7552 285.0816c0 79.73376 64.64 144.36864 144.36864 144.36864 79.73376 0 144.36864-64.63488 144.36864-144.36864 0-79.73376-64.63488-144.36864-144.36864-144.36864-79.72864 0-144.36864 64.63488-144.36864 144.36864z"  horiz-adv-x="1045" />

    
    <glyph glyph-name="gougou" unicode="&#58927;" d="M479.2832 134.88128c-28.75904-28.03712-75.48416-28.03712-104.2432 0l-234.74176 229.70368c-28.76416 28.04224-28.76416 74.05056 0 102.0928s75.48928 28.032 104.24832 0l182.61504-178.6624 351.92832 344.73472c28.76416 28.04224 75.48928 28.04224 104.25344 0s28.75904-74.05056 0-102.08768l-404.04992-395.776z"  horiz-adv-x="1024" />

    
    <glyph glyph-name="gerenxinxi" unicode="&#58928;" d="M694.2976 364.6976c58.83904 52.64384 95.86176 129.11104 95.86176 214.2976 0 158.83776-128.73728 287.58016-287.61088 287.58016-158.80192 0-287.54432-128.7424-287.54432-287.58016 0-85.15072 37.05344-161.65888 95.85664-214.2976-158.43328-72.73472-268.40576-232.73472-268.40576-418.3808h115.03104c0 190.58688 154.48064 345.09824 345.06752 345.09824 190.64832 0 345.09824-154.54208 345.09824-345.09824h115.05664c0 185.6512-109.93664 345.6512-268.40576 418.3808zM502.54848 751.54944c95.30368 0 172.544-77.2096 172.544-172.54912 0-95.27296-77.24032-172.544-172.544-172.544-95.25248 0-172.51328 77.27104-172.51328 172.544 0 95.30368 77.27616 172.544 172.51328 172.544z"  horiz-adv-x="1024" />

    
    <glyph glyph-name="gonggao" unicode="&#58929;" d="M512 764.70272c-247.36256 0-447.88736-148.60288-447.88736-331.91424 0-110.17216 72.41216-207.7952 183.89504-268.17024-0.30208-0.96768-88.81152-161.32608-88.81152-161.32608s270.2592 102.63552 271.01184 103.09632c26.5216-3.62496 53.8624-5.52448 81.792-5.52448 247.36256 0 447.89248 148.60288 447.89248 331.92448-0.00512 183.31136-200.52992 331.91424-447.89248 331.91424z m-203.264-370.3808c-28.99456 0-52.51584 23.3984-52.51584 52.2752 0 28.88192 23.5264 52.28544 52.51584 52.28544 29.0048 0 52.50048-23.40864 52.50048-52.28544s-23.5008-52.2752-52.50048-52.2752z m208.91648-2.19136c-28.98944 0-52.50048 23.40352-52.50048 52.28544 0 28.8768 23.51104 52.28544 52.50048 52.28544 29.00992 0 52.52096-23.40864 52.52096-52.28544-0.00512-28.8768-23.51104-52.28544-52.52096-52.28544z m212.20864 0c-28.99456 0-52.49024 23.40352-52.49024 52.28544 0 28.8768 23.49568 52.28544 52.49024 52.28544 29.00992 0 52.5056-23.40864 52.5056-52.28544s-23.49568-52.28544-52.5056-52.28544z"  horiz-adv-x="1024" />

    
    <glyph glyph-name="fangdajing" unicode="&#58930;" d="M883.7376 109.7216c15.0016-15.0016 18.19136-40.50944 3.20512-55.51616l-37.50912-42.31168c-15.0016-15.0016-42.51648-13.80352-57.5232 1.2032l-153.72288 156.1088c-1.1264 1.09056-1.55648 2.55488-2.5088 3.75296-51.95776-34.9184-114.48832-55.32672-181.80096-55.32672-180.32128 0-326.5024 146.176-326.5024 326.48704 0 180.34688 146.18112 326.49728 326.5024 326.49728 180.31616 0 326.49728-146.1504 326.49728-326.49728 0-65.86368-19.67616-127.0784-53.22752-178.3552 0.50176-0.49152 1.1776-0.64 1.66912-1.1264l154.92096-154.91584zM453.87776 693.7856c-137.89696 0-249.6768-111.77984-249.6768-249.66656 0-137.8816 111.77984-249.66656 249.6768-249.66656 137.88672 0 249.6768 111.78496 249.6768 249.66656 0 137.88672-111.79008 249.66656-249.6768 249.66656z m120.05376-153.9072c-28.17024 35.26656-71.424 57.8816-120.05376 57.8816-52.01408 0-97.88928-25.8816-125.68576-65.41824l-31.50848 21.94432c34.7392 49.47456 92.12928 81.88416 157.19424 81.88416 60.70784 0 114.7648-28.24192 149.9648-72.2432l-29.91104-24.04352z"  horiz-adv-x="1024" />

    
    <glyph glyph-name="houtui" unicode="&#58931;" d="M745.66144 101.80096l-281.19552 281.15456 281.19552 283.5968-80.73216 80.03584-361.07776-364.15488 40.20736-39.8592 321.22368-321.16224 80.384 80.38912z m0 0"  horiz-adv-x="1024" />

    
    <glyph glyph-name="huafeichongzhi" unicode="&#58932;" d="M754.33984 839.68H269.65504c-44.37504 0-81.92-37.54496-81.92-81.92v-747.52c0-44.36992 37.54496-81.92 81.92-81.92h484.68992c44.36992 0 81.92 37.55008 81.92 81.92V757.76c-0.00512 44.37504-34.13504 81.92-81.92512 81.92zM433.49504 781.65504h160.41984c6.83008 0 13.66016-6.82496 13.66016-13.65504s-6.83008-13.65504-13.66016-13.65504H433.49504C426.66496 754.34496 419.84 761.17504 419.84 768s6.82496 13.65504 13.65504 13.65504z m248.32-273.21344c-1.74592-1.74592-2.60096-3.49696-2.60096-5.20192l-106.5984-163.79904h62.40256c19.05664 0 28.60032-7.79776 28.60032-23.3984-1.74592-12.14976-11.29472-19.09248-28.60032-20.80256h-90.99776v-46.80192h90.99776c19.05664 0 28.60032-7.79776 28.60032-23.3984-1.74592-12.14976-11.29472-19.09248-28.60032-20.80256h-90.99776v-104.00256c0-17.34656-9.54368-25.99936-28.60032-25.99936-19.09248 0-28.60032 8.6528-28.60032 25.99936V204.2368H395.81696c-17.34656 1.70496-26.89536 8.64768-28.60032 20.80256 0 15.60064 9.50272 23.3984 28.60032 23.3984h90.99776v46.80192H395.81696c-17.34656 1.70496-26.89536 8.64768-28.60032 20.80256 0 15.60064 9.50272 23.3984 28.60032 23.3984h62.40256l-106.5984 163.79904c0 1.70496-0.896 3.45088-2.60096 5.20192a97.48992 97.48992 0 0 0-7.79776 20.80256c1.70496 13.85472 9.50272 21.65248 23.3984 23.3984 13.85472 0 24.25344-6.0928 31.20128-18.2016l119.59808-179.39968 119.59808 179.39968c6.90688 12.10368 17.3056 18.2016 31.20128 18.2016 13.85472-1.74592 21.65248-9.5488 23.3984-23.3984-0.00512-3.49696-2.60096-10.40384-7.80288-20.80256z"  horiz-adv-x="1024" />

    
    <glyph glyph-name="jilu" unicode="&#58933;" d="M823.63904 829.21472h-89.088V896H289.3312v-66.78528h-89.088c-70.67648 0-111.27296-57.06752-111.27296-111.27808v-734.54592c0-54.3232 40.6016-111.27808 111.27296-111.27808h623.27296c70.67648 0 111.27808 57.06752 111.27808 111.27808V717.93664c0.11264 54.3232-40.48384 111.27808-111.16032 111.27808z m-267.15136-178.06336h200.36096v-44.4928H556.4928v44.4928zM333.93664 851.5072h356.12672v-89.088H333.93664v89.088z m467.16928-801.10592H222.89408v44.25728h578.21184v-44.25728z m0.34304 133.45792H222.77632v44.14464h578.67264v-44.14464z m0 133.46304H222.77632v44.25728h578.67264v-44.25728z m0 133.34528H222.77632v44.25728h578.67264v-44.25728z"  horiz-adv-x="1024" />

    
    <glyph glyph-name="qianjin" unicode="&#58934;" d="M303.85152 666.19904l281.1904-281.14944-281.1904-283.5968 80.73216-80.04096 361.07776 364.15488-40.20736 39.86432-321.22368 321.15712-80.37888-80.384z"  horiz-adv-x="1024" />

    
    <glyph glyph-name="liebiao" unicode="&#58935;" d="M844.8256-16H179.1744a24.42752 24.42752 0 0 0-24.4224 24.4224V759.5776a24.42752 24.42752 0 0 0 24.4224 24.4224h665.6512a24.42752 24.42752 0 0 0 24.42752-24.4224v-751.14496a24.42752 24.42752 0 0 0-24.42752-24.42752zM333.37344 571.88864a32.48128 32.48128 0 1 1-64.95232 0v-0.22528a32.47616 32.47616 0 0 1 64.95232 0v0.22528z m0-195.92192a32.47616 32.47616 0 0 1-64.95232 0v-0.2304a32.47616 32.47616 0 0 1 64.95232 0v0.2304z m0-195.92192a32.47616 32.47616 0 0 1-64.95232 0v-0.23552a32.47616 32.47616 0 0 1 64.95232 0v0.23552z m405.9648 412.11392a12.21632 12.21632 0 0 1-12.2112 12.21632H394.30144a12.21632 12.21632 0 0 1-12.21632-12.21632v-40.7552a12.21632 12.21632 0 0 1 12.21632-12.21632h332.8256a12.2112 12.2112 0 0 1 12.2112 12.21632v40.7552z m0-195.92704a12.21632 12.21632 0 0 1-12.2112 12.21632H394.30144a12.21632 12.21632 0 0 1-12.21632-12.21632v-40.7552a12.21632 12.21632 0 0 1 12.21632-12.21632h332.8256a12.2112 12.2112 0 0 1 12.2112 12.21632v40.7552z m0-195.92704a12.21632 12.21632 0 0 1-12.2112 12.21632H394.30144a12.21632 12.21632 0 0 1-12.21632-12.21632v-40.7552a12.21632 12.21632 0 0 1 12.21632-12.21632h332.8256a12.2112 12.2112 0 0 1 12.2112 12.21632v40.7552z"  horiz-adv-x="1024" />

    
    <glyph glyph-name="liuliangchongzhi" unicode="&#58936;" d="M754.34496 839.68H269.65504c-44.37504 0-81.92-37.54496-81.92-81.92v-747.52c0-44.36992 37.54496-81.92 81.92-81.92h484.68992c44.36992 0 81.92 37.55008 81.92 81.92V757.76c0 44.37504-34.12992 81.92-81.92 81.92zM464.21504 170.67008c0-10.24-6.83008-20.48-20.48-20.48-13.65504 0-20.48 6.81984-20.48 20.48V556.37504l-92.16-92.16c-6.83008-6.82496-20.48-6.82496-27.31008 0C296.96 471.04 296.96 484.69504 303.78496 491.52l129.71008 126.28992C440.32 624.64 447.14496 624.64 453.97504 621.22496c6.82496-3.41504 10.24-10.24 10.24-17.06496v-433.48992z m-30.72 583.68C426.66496 754.35008 419.84 761.17504 419.84 768s6.82496 13.64992 13.65504 13.64992h160.41984c6.83008 0 13.66016-6.82496 13.66016-13.64992s-6.83008-13.64992-13.66016-13.64992H433.49504z m290.12992-471.04l-122.88-126.30016c-3.40992-3.40992-6.83008-6.81984-13.64992-6.81984h-6.83008c-6.83008 3.40992-10.24 10.24-10.24 17.05984V604.16c0 10.24 6.83008 20.48 20.48 20.48s20.48-6.82496 20.48-20.48v-385.71008l92.16 92.16c6.83008 6.83008 20.48 6.83008 27.31008 0 0-10.24 0-20.48-6.83008-27.29984z"  horiz-adv-x="1024" />

    
    <glyph glyph-name="shengyin_guan" unicode="&#58937;" d="M501.00508 881.019409c-17.909679-17.346481-164.530451-163.265817-285.407981-283.866868H33.156969A33.136489 33.136489 0 0 1 0 563.995571v-359.422364a33.136489 33.136489 0 0 1 33.156969-33.151849h182.015172c123.401679-122.562002 273.381156-271.281966 285.832939-283.871989 25.738123-25.743243 71.628474-20.566946 71.628475 23.362454V857.656955c-0.138239 48.40938-49.807133 44.630837-71.628475 23.362454zM928.968573 396.951211l188.732581 188.732582c18.191277 18.191277 18.191277 47.851302 0 65.8941-18.186157 18.191277-47.846182 18.191277-65.8941 0L863.079593 462.845312l-188.875941 188.737701c-18.186157 18.186157-47.846182 18.186157-65.8941 0-18.186157-18.191277-18.186157-47.851302 0-65.8941l188.732581-188.737702-188.732581-188.87594c-18.186157-18.186157-18.186157-47.846182 0-65.8941 18.186157-18.186157 47.846182-18.186157 65.8941 0l188.875941 188.737701 188.732581-188.737701c18.186157-18.186157 47.846182-18.186157 65.8941 0 18.191277 18.191277 18.191277 47.851302 0 65.8941l-188.732581 188.87594z"  horiz-adv-x="1131" />

    
    <glyph glyph-name="shibai" unicode="&#58938;" d="M512 832c-249.6 0-448-198.4-448-448s198.4-448 448-448 448 198.4 448 448-198.4 448-448 448z m275.2-723.2c-76.8-76.8-172.8-115.2-275.2-115.2s-204.8 38.4-275.2 115.2S121.6 281.6 121.6 384s38.4 204.8 115.2 275.2S409.6 774.4 512 774.4s204.8-38.4 275.2-115.2S902.4 486.4 902.4 384s-38.4-204.8-115.2-275.2zM320 473.6a57.6 57.6 0 1 1 115.2 0 57.6 57.6 0 1 1-115.2 0z m288 0a57.6 57.6 0 1 1 115.2 0 57.6 57.6 0 1 1-115.2 0z m-89.6-211.2c-89.6 0-166.4-38.4-211.2-102.4 0 0-6.4-19.2 6.4-32s38.4-12.8 38.4-12.8c6.4 12.8 19.2 25.6 32 38.4 38.4 32 83.2 44.8 134.4 44.8s102.4-19.2 134.4-44.8l32-32s19.2 0 32 6.4c12.8 12.8 12.8 25.6 12.8 25.6-44.8 70.4-121.6 108.8-211.2 108.8z"  horiz-adv-x="1024" />

    
    <glyph glyph-name="shousuo" unicode="&#58939;" d="M242.56 163.10784l281.14944 281.1904 283.5968-281.1904 80.04096 80.72704-364.15488 361.07776-39.86432-40.20736-321.15712-321.21856 80.384-80.384z"  horiz-adv-x="1024" />

    
    <glyph glyph-name="shengyin_kai" unicode="&#58940;" d="M500.940249 881.039376C483.035629 863.692836 336.43483 717.788356 215.567123 597.197129H33.151964A33.136604 33.136604 0 0 1 0 564.050285v-359.372405a33.136604 33.136604 0 0 1 33.151964-33.157083h181.995319c123.381624-122.680185 273.346259-271.380181 285.798086-283.970248 25.733092-25.743332 71.618481-20.567017 71.618481 23.362535V857.538602c0 48.537547-49.663945 44.764111-71.623601 23.500774z m358.814325-60.011454c-2.519037 1.116159-8.81151 3.773436-12.308466 4.756475-1.679358 0.41984-4.198395 0.972799-6.574073 1.259519-0.2816 0-0.41984 0.13824-0.701439 0.13824a111.738757 111.738757 0 0 1-6.154233 0.696319h-2.099198c-24.760293 0-44.764111-19.865578-44.764111-44.339151 0-20.008938 13.429745-37.073879 31.897565-42.531794l25.318372-11.187187c125.480822-65.187768 211.230488-195.286825 211.230488-345.52794 0-149.539676-84.909987-279.075533-209.41289-344.683141-1.679358-0.839679-31.754205-13.711345-31.754205-13.711345-15.948782-6.855672-27.13597-22.522855-27.13597-40.703955 0-24.483813 19.998698-44.349391 44.758991-44.349391 1.541118 0 3.082237 0.14336 4.479995 0.281599h0.13824c0.2816 0 0.563199 0 0.701439 0.13824 2.237438 0.2816 8.81151 1.402878 18.4627 4.761595 170.106693 73.855919 289.289922 242.145014 289.289921 438.271518 0 194.580266-117.227391 361.748082-285.373126 436.730399z m70.645683-436.735519c0 101.980048-52.321222 191.789869-131.773295 245.22725-26.583011 21.119977-45.04571 30.632926-56.376258 34.831322a42.239954 42.239954 0 0 1-10.352629 3.077116c-2.237438 0.41984-3.220476 0.41984-3.220477 0.41984-1.397758 0.13824-2.657277 0.13824-4.055035 0.13824-24.760293 0-44.764111-19.865578-44.764111-44.339151 0-14.131184 6.717433-26.726371 17.064941-34.836442 3.358716-2.657277 42.946513-24.478693 45.88539-26.163171 59.033535-37.903318 98.201492-103.654286 98.201492-178.493244 0-74.280878-38.466518-139.468647-96.522134-177.520445l-38.891477-21.964776c-15.103983-7.132152-25.599972-22.374375-25.599972-40.140755 0-24.483813 20.003818-44.349391 44.764111-44.349392a40.294356 40.294356 0 0 1 8.253431 0.839679s16.926701 0 70.645682 41.128915c76.661676 54.1337 126.740341 142.264164 126.740341 242.145014z"  horiz-adv-x="1145" />

    
    <glyph glyph-name="shouye" unicode="&#58941;" d="M858.79808 328.27904l-328.86272 352.512c-0.26112 0.26624-6.42048 7.26528-15.11424 7.26528-10.24 0-15.07328-6.99904-15.3344-7.2704l-328.86272-352.512h0.59904l-26.60864-28.60544v-389.09952s30.32064-0.70656 67.75296-0.70656h170.17344c-0.16384 1.9968-0.256 4.02432-0.256 6.07232v259.59424c0 37.4528 27.73504 67.81952 61.93664 67.81952h143.15008c34.2016 0 61.94688-30.36672 61.94688-67.81952v-259.59936c0-2.048-0.1024-4.0704-0.26624-6.0672h167.8848c37.43232 0 67.7888 0.70144 67.7888 0.70144V299.6736l-26.60864 28.61056h0.68096zM591.1552 829.4144c-42.42944 42.50624-111.26272 42.50624-153.68704 0L5.33504 396.64128c15.99488-31.1808 44.544-54.82496 78.96576-64.26624l408.5248 407.35232a75.1616 75.1616 0 0 0 7.51616 6.63552c4.91008 4.4032 9.6512 6.24128 14.36672 6.06208 4.72064 0.17408 9.46176-1.664 14.37184-6.06208 2.46784-1.8688 4.9664-4.096 7.52128-6.63552l408.58624-407.41376c34.2528 9.3184 62.70976 32.70656 78.81216 63.5904l-432.8448 433.5104z"  horiz-adv-x="1024" />

    
    <glyph glyph-name="wancheng" unicode="&#58942;" d="M939.38176 606.62272l-33.61792 33.59744a20.5312 20.5312 0 0 1-28.95872 0l-54.00064-53.99552c-66.23744 101.30432-180.48512 168.49408-310.28736 168.49408-204.41088 0-370.70336-166.30272-370.70336-370.72896 0-204.40064 166.29248-370.688 370.70336-370.688 204.41088 0 370.70336 166.28736 370.70336 370.688 0 41.2672-7.0656 80.8448-19.56864 117.95968l75.7248 75.71456a20.55168 20.55168 0 0 1 0.00512 28.95872z m-117.59616-222.63296c0-170.5216-138.73152-309.25824-309.26848-309.25824-170.53184 0-309.26336 138.73664-309.26336 309.25824 0 170.54208 138.73152 309.28896 309.26336 309.28896 112.9472 0 211.65568-61.04576 265.63072-151.69536l-219.8528-219.83232a20.54144 20.54144 0 0 0-28.95872 0L363.6224 487.48544a20.5312 20.5312 0 0 1-28.95872-0.00512l-33.59232-33.60256a20.5568 20.5568 0 0 1 0-28.96896l165.7088-165.71392c7.9616-7.95648 14.4384-14.53056 14.39744-14.58176-0.03584-0.0512 6.44096-6.61504 14.40256-14.57664l33.59744-33.59744a20.53632 20.53632 0 0 1 28.95872 0l255.81056 255.7952c4.98176-21.98528 7.83872-44.76416 7.83872-68.2496z"  horiz-adv-x="1024" />

    
    <glyph glyph-name="zhankai" unicode="&#58943;" d="M806.94784 604.90752l-281.15456-281.1904-283.5968 281.1904-80.03584-80.73216 364.15488-361.07264 39.86432 40.20224 321.15712 321.21856-80.38912 80.384z"  horiz-adv-x="1024" />

    
    <glyph glyph-name="yi" unicode="&#58944;" d="M510.6176-127.75936c-5.4272 0-10.78272 0.48128-16.08704 1.26464-18.1248 3.072-434.27328 80.34816-434.27328 662.25152V686.6432c0 25.2928 11.264 49.6896 30.96064 66.79552 17.5872 15.23712 40.2944 23.66976 64.08704 23.66976l6.144-0.24064c0.8448-0.06144 10.5984-0.60416 25.84064-0.60416 26.08128 0 76.8512 1.62816 123.83744 12.41088 38.96832 8.91392 88.65792 39.69024 139.85792 86.61504l7.3472 6.02112c31.80544 19.6352 73.36448 19.39456 104.1408 0.12288 5.60128-3.49696 14.45888-10.24 25.6-18.85696 31.02208-23.97184 82.82112-64.14336 125.70624-73.96352 47.04256-10.78272 97.152-12.40576 122.87488-12.40576 14.8736 0 24.45312 0.48128 25.71776 0.59904l6.38464 0.18432c23.66976 0 46.4384-8.37632 63.96416-23.61344 19.69664-17.16736 31.02208-41.4976 31.02208-66.85696v-150.8864c0-581.35552-418.85696-659.05664-436.6848-662.12864-5.66272-0.78336-11.0848-1.26464-16.44544-1.26464zM157.34784 716.75904c-11.38176 0-20.17792-3.25632-26.56256-8.79616-6.62528-5.7856-10.30144-13.312-10.30144-21.31968v-150.8864c0-531.54816 367.95904-600.0896 383.62112-602.74176 3.67616-0.60416 8.79104-0.6656 13.25056 0.06144 15.42144 2.59072 386.1504 71.55712 386.1504 602.68032V686.6432c0 7.94624-3.7376 15.7184-10.24 21.38112-6.44608 5.60128-15.42144 8.8576-24.45312 8.8576-3.43552-0.12288-14.57664-0.78848-32.1024-0.78848-28.25216 0-83.48672 1.80736-136.30976 13.91616-55.8336 12.70784-114.31936 57.94304-149.1968 84.98688-8.97024 6.92736-16.02048 12.52864-20.53632 15.36-11.86816 7.40864-28.43136 7.40864-40.23808 0C432.0768 776.20736 374.2464 741.3248 324.5568 729.94816c-52.70016-12.1088-108.65664-13.91616-137.2672-13.91616-20.17792 0-28.61056 0.72704-29.93664 0.72704z m72.15616-395.5456V377.7024c13.9776 5.9648 24.576 15.42144 31.80544 28.43136 5.7856 10.30144 11.02336 24.87808 15.77984 43.84768h58.66496L329.55904 429.568h384.76288c28.12416 0 49.62816-7.28576 64.44544-21.92384 14.81728-14.81728 22.22592-33.66912 22.22592-56.4992v-104.07936c0-24.87808-7.8848-45.29664-23.79264-61.1328-13.97248-13.9776-34.93376-21.02272-62.69952-21.02272l-74.38848-0.3584 0.3072 57.15456h63.05792c26.68544 0 40.1152 13.1328 40.1152 39.45472v77.63968c0 9.8816-3.072 18.1248-9.27744 24.69376-6.3232 6.8096-15.65696 10.17856-27.76576 10.17856H308.23424c-8.61184-13.73184-17.34656-24.15104-26.19904-31.13984-13.19424-10.48064-30.72-17.5872-52.52608-21.31968z m3.7376-158.71488V219.904c35.59424 0.6656 63.06304 16.2048 82.4576 46.62272l51.86048 81.19296h65.77152L373.7088 252.0064c-19.15392-30.8992-39.39328-53.00736-60.83584-66.43712-16.86528-10.48064-34.93376-17.16736-54.03136-20.06016a506.368 506.368 0 0 0-25.6-3.01056zM249.56928 520.704V627.5584c0 40.71424 19.87584 61.1328 59.62752 61.1328h397.7728c24.2176 0 41.86112-3.7888 52.70528-11.38176 13.85472-9.69728 20.72064-23.1936 20.72064-40.41728v-123.83744c0-18.54976-6.56384-33.00352-19.75808-43.5456-9.3952-7.40864-21.8624-11.14112-37.28384-11.14112H299.6224c-18.31424 0-32.64512 8.67328-42.88512 25.9584-4.7616 7.95136-7.168 20.1216-7.168 36.3776z m58.0608 81.85856h414.69952v11.4432c0 11.74528-7.04512 17.5872-21.07904 17.5872H326.18496c-4.9408 0-9.0368-1.50528-12.34944-4.63872-4.096-3.91168-6.20544-7.95136-6.20544-12.04736v-12.34432zM722.3296 545.6896H307.63008v-11.74528c0-6.98368 1.44896-11.92448 4.33664-14.81216 3.31264-3.072 10.48064-4.63872 21.62688-4.63872h367.11424c14.45376 0 21.62176 6.08256 21.62176 18.18624v13.00992zM422.8608 164.608v56.4992c19.9936 1.44384 36.61824 6.44608 50.048 15.11936 13.37344 8.48896 26.4448 22.76352 39.21408 42.94144l44.3904 69.50912h65.77152l-51.5584-83.06176c-14.21312-22.8864-25.17504-38.84544-33.00864-47.88224-28.0064-32.52736-66.31424-50.23232-114.86208-53.12512z"  horiz-adv-x="1024" />

    
    <glyph glyph-name="zhengque" unicode="&#58945;" d="M512-119.6544c-278.15936 0-503.6544 225.4848-503.6544 503.6544C8.3456 662.15936 233.83552 887.6544 512 887.6544c278.16448 0 503.6544-225.49504 503.6544-503.6544 0-278.16448-225.4848-503.6544-503.6544-503.6544z m282.6752 651.4176l-35.328 34.59584c-19.51744 19.0976-51.15904 19.0976-70.67136 0l-247.3472-242.13504-105.99936 103.77728c-19.51744 19.0976-51.15904 19.0976-70.67136 0l-35.33312-34.59584a48.18944 48.18944 0 0 1 0-69.18144l141.33248-138.35264 35.33824-34.59584c19.51232-19.0976 51.1488-19.0976 70.67136 0L794.6752 462.592a48.18944 48.18944 0 0 1 0 69.18144z"  horiz-adv-x="1024" />

    
    <glyph glyph-name="youfei" unicode="&#58946;" d="M980.0192 671.88736s0.57344 14.02368-15.744 28.68224c-32.06144 28.78464-86.44096 76.70784-103.05024 93.32224-9.33376 9.32352-30.80704 14.80192-45.1072-0.19456-13.63456-14.30528-7.68-33.09568 2.37568-42.7008 14.35136-13.66016 46.63296-40.61696 65.05472-60.8256-15.31392-18.90304-40.66816-38.71744-56.4736-56.19712-2.02752-2.176-1.9456-4.67968-1.91488-5.90848 0.06144-9.99936 0.4608-16.87552 0.38912-21.0944-0.06656-3.66592 4.2496-5.00224 6.14912-5.00224h80.0256c5.376 0 6.75328-5.39648 6.75328-5.39648V81.3056c0-28.76928-15.6416-37.82656-31.6928-37.82656-16.05632 0-33.14688 9.12896-33.14688 37.82656V502.5792c0 38.1952-4.20352 55.48032-47.30368 57.78944-10.5472 0.5632-52.97152 0.1536-75.97568 0V828.9792c0 35.41504-28.71808 64.10752-64.12288 64.10752H171.14624C135.7056 893.08672 107.008 864.38912 107.008 828.9792v-861.12256h-36.6336a26.368 26.368 0 0 1-26.3936-26.37824v-38.90688c0-14.58176 11.79648-27.65824 26.3936-27.65824h695.57248c14.5664 0 26.38848 13.07136 26.38848 27.65824v38.912a26.38336 26.38336 0 0 1-26.38848 26.368h-35.584V498.49344c12.94848-0.04608 31.09376 0 44.19584 0 15.7696 0 17.10592-15.64672 17.10592-15.64672v-405.56544c0-103.51104 85.62688-104.4992 95.12448-104.4992 12.76928 0 93.23008 0 93.23008 103.20896V671.88736zM615.35744 509.0816a42.752 42.752 0 0 0-42.76736-42.74688H262.7328a42.74176 42.74176 0 0 0-42.73664 42.74688V735.4368a42.74176 42.74176 0 0 0 42.73664 42.752h309.85728c23.61344 0 42.76736-19.1488 42.76736-42.752v-226.3552z m0 0"  horiz-adv-x="1024" />

    
    <glyph glyph-name="delete" unicode="&#58947;" d="M668.63616 763.904H395.35616v-81.02912H207.872V611.3792h648.2432V682.87488h-187.47904V763.904z m-208.67072-45.28128h144.05632v-35.74784H459.96544v35.74784zM246.00064-0.4096l35.74784-36.4544h500.48l35.74784 36.4544V582.77888H246.00064V-0.4096z m428.98432 473.84064h35.74784v-400.95232h-35.74784V473.43104z m-107.24352 0h35.74784v-400.95232h-35.74784V473.43104z m-107.24864 0h35.74784v-400.95232H460.4928V473.43104z m-107.24352 0h35.74784v-400.95232h-35.74784V473.43104z"  horiz-adv-x="1024" />

    


  </font>
</defs>
</svg>
